<svg width="128" height="47" viewBox="0 0 128 47" fill="none" xmlns="http://www.w3.org/2000/svg">
<path d="M18.4784 14.8L18.2384 17.76C18.2384 21.4933 18.4784 24.7867 18.9584 27.64C19.4384 30.4667 20.0118 31.88 20.6784 31.88C21.5851 31.88 22.5851 30.6133 23.6784 28.08C24.7718 25.5467 25.3184 23.0133 25.3184 20.48C25.3184 17.5733 25.0118 15.6 24.3984 14.56C24.1584 14.1867 23.7851 13.7467 23.2784 13.24C22.3451 12.3067 21.8784 11.4133 21.8784 10.56C21.8784 10.16 21.9851 9.84 22.1984 9.6C22.4384 9.33333 22.7184 9.2 23.0384 9.2C23.8651 9.2 24.5584 9.53333 25.1184 10.2C25.6784 10.84 26.0784 11.68 26.3184 12.72C26.7718 14.56 26.9984 16.5067 26.9984 18.56C26.9984 23.3333 26.1051 27.2 24.3184 30.16C22.5584 33.12 20.8251 34.6 19.1184 34.6C17.8918 34.6 16.9718 33.2933 16.3584 30.68C15.7718 28.0667 15.4784 24.7467 15.4784 20.72C13.8784 27.3867 12.1851 31.6 10.3984 33.36C9.51844 34.1867 8.57177 34.6 7.55844 34.6C7.0251 34.6 6.49177 34.3733 5.95844 33.92C5.45177 33.44 5.07844 32.8133 4.83844 32.04C4.3051 30.4667 4.03844 27.4667 4.03844 23.04C2.91844 22.88 1.91844 22.5867 1.03844 22.16C0.611771 21.9467 0.398438 21.7067 0.398438 21.44C0.398438 21.1733 0.665104 21.04 1.19844 21.04L4.07844 21.64C4.31844 17.0267 5.1851 13.4667 6.67844 10.96C7.47844 9.6 8.37177 8.92 9.35844 8.92C11.1451 8.92 12.0384 10.2533 12.0384 12.92C12.0384 15.08 11.6251 17.1467 10.7984 19.12C9.97177 21.0933 8.73177 22.3467 7.07844 22.88C7.07844 24.6667 7.1851 26.2667 7.39844 27.68C7.8251 30.48 8.3451 31.88 8.95844 31.88C9.4651 31.88 10.1318 31.12 10.9584 29.6C11.7851 28.0533 12.5851 25.9733 13.3584 23.36C14.1584 20.7467 14.6784 18.1733 14.9184 15.64C14.9451 15.2667 15.3051 14.84 15.9984 14.36C16.6918 13.88 17.1718 13.64 17.4384 13.64C18.1318 13.64 18.4784 14.0267 18.4784 14.8ZM7.07844 21.64C8.2251 21.1867 9.1051 20.1067 9.71844 18.4C10.3584 16.6667 10.6784 15.3067 10.6784 14.32C10.6784 13.3067 10.6384 12.56 10.5584 12.08C10.3718 11.2533 10.1184 10.84 9.79844 10.84C9.21177 10.84 8.6251 12.0667 8.03844 14.52C7.47844 16.9467 7.15844 19.32 7.07844 21.64ZM40.4966 25.32C41.5632 24.9733 42.2966 24.68 42.6966 24.44C43.1232 24.1733 43.4432 23.9733 43.6566 23.84L44.1366 23.56C44.2699 23.48 44.3766 23.44 44.4566 23.44C44.6699 23.44 44.7766 23.56 44.7766 23.8C44.7766 24.04 44.3632 24.4667 43.5366 25.08C42.7099 25.6667 41.6832 26.2 40.4566 26.68C40.2699 28.92 39.5632 30.7333 38.3366 32.12C37.1099 33.5067 35.3632 34.2 33.0966 34.2C31.4432 34.2 30.1766 33.5467 29.2966 32.24C28.4166 30.9067 27.9766 29.36 27.9766 27.6C27.9766 25.8133 28.4966 24.1333 29.5366 22.56C30.6032 20.9867 31.9632 20.2 33.6166 20.2C34.3632 19.6667 35.2432 19.4 36.2566 19.4C37.2966 19.4 38.2566 19.9467 39.1366 21.04C40.0166 22.1333 40.4699 23.56 40.4966 25.32ZM37.8966 27.36L36.4566 27.44C35.2299 27.44 34.1899 27.08 33.3366 26.36C32.4832 25.6133 32.0566 24.8 32.0566 23.92C32.0566 23.04 32.2032 22.28 32.4966 21.64C31.3499 22.5467 30.7766 24.3333 30.7766 27C30.7766 28.28 31.0432 29.5067 31.5766 30.68C32.1099 31.8267 32.9499 32.4 34.0966 32.4C35.2432 32.4 36.1366 31.92 36.7766 30.96C37.4166 29.9733 37.7899 28.7733 37.8966 27.36ZM35.4166 20.72C34.9899 20.72 34.6566 20.92 34.4166 21.32C34.1766 21.6933 34.0566 22.1067 34.0566 22.56C34.0566 23.5467 34.3899 24.3467 35.0566 24.96C35.7499 25.5733 36.5499 25.88 37.4566 25.88H37.9366C37.8832 24.5733 37.6566 23.3867 37.2566 22.32C36.8832 21.2533 36.2699 20.72 35.4166 20.72ZM46.0269 23.56L48.2269 23.32C48.4402 23.32 48.6269 23.44 48.7869 23.68C48.9469 23.92 49.0269 24.1733 49.0269 24.44C49.0269 24.7067 48.9335 25.6133 48.7469 27.16C48.5869 28.7067 48.5069 29.9333 48.5069 30.84C48.5069 31.72 48.5869 32.16 48.7469 32.16C49.2002 32.1333 49.8269 31.5733 50.6269 30.48C51.4269 29.36 52.2135 27.9333 52.9869 26.2C53.7869 24.4667 54.2669 23.6 54.4269 23.6C54.6135 23.6 54.7069 23.7067 54.7069 23.92C54.7069 24.6667 54.3202 25.8533 53.5469 27.48C51.4402 31.96 49.6669 34.2 48.2269 34.2C47.1869 34.2 46.4002 33.9867 45.8669 33.56C45.6802 33.3733 45.5869 32.2133 45.5869 30.08C45.5869 27.9467 45.8135 26.12 46.2669 24.6C44.7202 24.6 43.6402 24.1067 43.0269 23.12C42.7069 22.6133 42.5469 22.04 42.5469 21.4C42.5469 20.76 42.6802 20.2 42.9469 19.72C43.2135 19.24 43.5869 19 44.0669 19C44.5735 19 45.0269 19.2667 45.4269 19.8C45.8535 20.3067 46.0669 20.88 46.0669 21.52C46.0669 22.16 45.8802 22.8 45.5069 23.44C45.6135 23.52 45.7869 23.56 46.0269 23.56ZM65.6222 35.4L66.7022 35.28C66.9155 35.28 67.0222 35.3867 67.0222 35.6C67.0222 35.9733 66.7689 36.2533 66.2622 36.44C65.7555 36.6267 65.1822 36.72 64.5422 36.72C63.3422 36.72 62.3289 36.24 61.5022 35.28C60.7022 34.32 59.5822 32.5467 58.1422 29.96C57.7955 29.4 57.6222 28.9733 57.6222 28.68C57.6222 28.28 58.1822 27.8133 59.3022 27.28C61.1155 26.3467 62.0222 25.1733 62.0222 23.76C62.0222 23.36 61.8755 23.0267 61.5822 22.76C61.3155 22.4667 60.9555 22.32 60.5022 22.32C59.8622 22.32 59.1022 23.08 58.2222 24.6C57.3422 26.0933 56.7422 27.5067 56.4222 28.84C56.1289 30.1467 55.9822 31.56 55.9822 33.08C55.9822 33.8267 55.7689 34.2 55.3422 34.2C54.7289 34.2 54.1422 34.12 53.5822 33.96C53.0222 33.7733 52.7422 33.5467 52.7422 33.28C52.7422 32.9867 52.8489 31.72 53.0622 29.48C53.2755 27.2133 53.3955 25.5867 53.4222 24.6C53.5289 19.16 53.8489 15 54.3822 12.12C54.4622 11.88 54.8222 11.4667 55.4622 10.88C56.1289 10.2933 56.6622 10 57.0622 10C57.4622 10 57.6489 10.5067 57.6222 11.52C57.6222 12.5067 57.4089 14.64 56.9822 17.92C56.5555 21.2 56.2889 24.2 56.1822 26.92C56.6622 25.2133 57.4222 23.6 58.4622 22.08C59.5289 20.56 60.5955 19.8 61.6622 19.8C63.4755 19.8 64.3822 20.68 64.3822 22.44C64.3822 23.6133 64.0355 24.68 63.3422 25.64C62.6489 26.5733 61.7155 27.3333 60.5422 27.92C60.3022 28.0267 60.1822 28.1467 60.1822 28.28C60.1822 28.4133 60.2222 28.5467 60.3022 28.68C61.9822 31.64 63.4089 33.72 64.5822 34.92C64.9022 35.24 65.2489 35.4 65.6222 35.4ZM72.3731 21.76L72.4531 21.16C72.4531 20.68 72.1731 20.44 71.6131 20.44C71.0798 20.44 70.5598 20.8 70.0531 21.52C69.5465 22.2133 69.2931 22.7867 69.2931 23.24C69.2931 23.6933 69.3198 24.0533 69.3731 24.32C69.4265 24.5867 69.4798 24.8133 69.5331 25C69.6131 25.16 69.7331 25.36 69.8931 25.6C70.0531 25.84 70.1731 26.0133 70.2531 26.12L70.6931 26.68C70.8798 26.9467 71.0131 27.12 71.0931 27.2C72.4798 26.0533 74.1331 24.7733 76.0531 23.36C76.1598 23.28 76.2798 23.24 76.4131 23.24C76.6798 23.24 76.8131 23.3867 76.8131 23.68C76.8131 23.9733 76.6931 24.2 76.4531 24.36C74.7465 25.4533 73.1331 26.64 71.6131 27.92C72.1998 28.7733 72.4931 29.7067 72.4931 30.72C72.4931 31.7333 72.1065 32.6 71.3331 33.32C70.5598 34.04 69.5731 34.4 68.3731 34.4C67.1731 34.4 66.5731 33.8267 66.5731 32.68C66.5731 31.8533 67.4531 30.5867 69.2131 28.88C69.0798 28.72 68.8398 28.4667 68.4931 28.12C68.1465 27.7467 67.8798 27.4533 67.6931 27.24C67.5331 27.0267 67.3331 26.7467 67.0931 26.4C66.6665 25.7333 66.4531 25.0133 66.4531 24.24C66.4531 22.6667 66.9598 21.4 67.9731 20.44C68.9865 19.4533 70.0665 18.96 71.2131 18.96C71.9331 18.96 72.4931 19.16 72.8931 19.56C73.2931 19.9333 73.4931 20.32 73.4931 20.72C73.4931 21.6267 73.2798 22.08 72.8531 22.08C72.5331 22.08 72.3731 21.9733 72.3731 21.76ZM69.8131 29.64C68.7465 30.7067 68.2131 31.5733 68.2131 32.24C68.2131 32.88 68.5465 33.2 69.2131 33.2C69.6131 33.2 69.9465 33.04 70.2131 32.72C70.7998 31.92 70.6665 30.8933 69.8131 29.64ZM78.0934 31.84L78.1334 33.08C78.1334 33.8267 77.9201 34.2 77.4934 34.2C76.8534 34.2 76.2401 34.12 75.6534 33.96C75.0668 33.7733 74.7734 33.5333 74.7734 33.24C74.7734 32.92 74.8401 31.8667 74.9734 30.08C75.1334 28.2667 75.2134 26.9067 75.2134 26V23.68C75.2134 16.8533 76.4268 12.5067 78.8534 10.64C79.4134 10.2133 79.9868 10 80.5734 10C80.8401 10 81.1068 10.2933 81.3734 10.88C81.6401 11.4667 81.7734 12.2267 81.7734 13.16C81.7734 15.4533 81.3868 17.6 80.6134 19.6C79.8401 21.6 79.0534 23.1333 78.2534 24.2C78.2268 24.8667 78.2134 25.9067 78.2134 27.32C78.3201 27.16 78.8801 26.2533 79.8934 24.6C80.9068 22.9467 81.7601 21.7333 82.4534 20.96C83.1734 20.1867 83.8134 19.8 84.3734 19.8C84.9334 19.8 85.4268 19.9867 85.8534 20.36C86.3068 20.7333 86.5334 21.2 86.5334 21.76C86.5334 22.9333 86.4001 24.6667 86.1334 26.96C85.8934 29.2267 85.7734 30.6667 85.7734 31.28C85.7734 31.8667 85.8534 32.16 86.0134 32.16C86.4668 32.1333 87.0934 31.5733 87.8934 30.48C88.6934 29.36 89.4801 27.9333 90.2534 26.2C91.0534 24.4667 91.5334 23.6 91.6934 23.6C91.8801 23.6 91.9734 23.7067 91.9734 23.92C91.9734 24.6667 91.5868 25.8533 90.8134 27.48C88.7068 31.96 86.9334 34.2 85.4934 34.2C84.4534 34.2 83.6668 33.9867 83.1334 33.56C82.9468 33.3733 82.8534 32.8933 82.8534 32.12C82.8534 31.32 82.9201 30.04 83.0534 28.28C83.2134 26.4933 83.2934 25.16 83.2934 24.28C83.2934 23.4 83.1334 22.96 82.8134 22.96C82.5201 22.96 81.7201 23.88 80.4134 25.72C79.1068 27.5333 78.4134 28.6933 78.3334 29.2C78.1734 30.1333 78.0934 31.0133 78.0934 31.84ZM80.6934 14.04C80.6934 12.92 80.5468 12.36 80.2534 12.36C79.7734 12.36 79.3068 13.84 78.8534 16.8C78.6134 18.3733 78.4401 20.2 78.3334 22.28C79.9068 19 80.6934 16.2533 80.6934 14.04ZM102.137 25.32C103.204 24.9733 103.937 24.68 104.337 24.44C104.764 24.1733 105.084 23.9733 105.297 23.84L105.777 23.56C105.911 23.48 106.017 23.44 106.097 23.44C106.311 23.44 106.417 23.56 106.417 23.8C106.417 24.04 106.004 24.4667 105.177 25.08C104.351 25.6667 103.324 26.2 102.097 26.68C101.911 28.92 101.204 30.7333 99.9772 32.12C98.7505 33.5067 97.0039 34.2 94.7372 34.2C93.0839 34.2 91.8172 33.5467 90.9372 32.24C90.0572 30.9067 89.6172 29.36 89.6172 27.6C89.6172 25.8133 90.1372 24.1333 91.1772 22.56C92.2439 20.9867 93.6039 20.2 95.2572 20.2C96.0039 19.6667 96.8839 19.4 97.8972 19.4C98.9372 19.4 99.8972 19.9467 100.777 21.04C101.657 22.1333 102.111 23.56 102.137 25.32ZM99.5372 27.36L98.0972 27.44C96.8705 27.44 95.8305 27.08 94.9772 26.36C94.1239 25.6133 93.6972 24.8 93.6972 23.92C93.6972 23.04 93.8439 22.28 94.1372 21.64C92.9905 22.5467 92.4172 24.3333 92.4172 27C92.4172 28.28 92.6839 29.5067 93.2172 30.68C93.7505 31.8267 94.5905 32.4 95.7372 32.4C96.8839 32.4 97.7772 31.92 98.4172 30.96C99.0572 29.9733 99.4305 28.7733 99.5372 27.36ZM97.0572 20.72C96.6305 20.72 96.2972 20.92 96.0572 21.32C95.8172 21.6933 95.6972 22.1067 95.6972 22.56C95.6972 23.5467 96.0305 24.3467 96.6972 24.96C97.3905 25.5733 98.1905 25.88 99.0972 25.88H99.5772C99.5239 24.5733 99.2972 23.3867 98.8972 22.32C98.5239 21.2533 97.9105 20.72 97.0572 20.72ZM105.428 21.56C105.721 21.2133 106.188 20.7733 106.827 20.24C107.468 19.68 107.974 19.4 108.348 19.4C108.721 19.4 108.908 19.9333 108.908 21C108.908 22.04 108.628 23.0667 108.068 24.08C107.961 24.56 107.881 25.2533 107.828 26.16C108.601 24.0533 109.374 22.4667 110.148 21.4C110.921 20.3333 111.854 19.8 112.948 19.8C114.068 19.8 115.041 20.3067 115.868 21.32C116.694 22.3067 117.108 23.88 117.108 26.04C117.108 28.1733 116.494 30.0667 115.268 31.72C114.068 33.3733 112.481 34.2 110.508 34.2C109.494 34.2 108.468 33.8267 107.428 33.08C107.428 38.1733 107.134 42.0533 106.548 44.72C106.494 44.96 106.134 45.36 105.468 45.92C104.828 46.5067 104.361 46.8 104.067 46.8C103.747 46.8 103.521 46.5867 103.387 46.16C103.254 45.7333 103.187 45.3333 103.187 44.96C103.187 42.2133 103.748 38.68 104.868 34.36C105.054 31.8533 105.174 29.1067 105.228 26.12C105.308 23.1333 105.374 21.6133 105.428 21.56ZM110.748 32.76C111.521 32.76 112.321 32.2267 113.148 31.16C113.974 30.0667 114.388 28.7333 114.388 27.16C114.388 25.56 114.161 24.2933 113.708 23.36C113.281 22.4 112.694 21.92 111.948 21.92C110.668 21.92 109.214 24.5733 107.588 29.88C107.534 30.6267 107.508 31.2133 107.508 31.64C108.254 32.3867 109.334 32.76 110.748 32.76Z" fill="url(#paint0_linear)"/>
<path d="M96.777 7.538L96.885 8.69C96.885 8.81 96.819 8.906 96.687 8.978C96.567 9.05 96.465 9.086 96.381 9.086C96.213 9.086 96.063 8.954 95.931 8.69C95.811 8.414 95.751 8.162 95.751 7.934C95.751 7.046 96.057 6.296 96.669 5.684C97.293 5.06 98.079 4.592 99.027 4.28C99.027 3.872 99.111 3.488 99.279 3.128C99.459 2.756 99.735 2.57 100.107 2.57C100.263 2.57 100.341 2.792 100.341 3.236V3.992C100.725 3.944 101.007 3.92 101.187 3.92C102.783 3.92 104.043 4.37 104.967 5.27C105.903 6.158 106.371 7.28 106.371 8.636C106.371 9.572 106.203 10.4 105.867 11.12C105.531 11.84 105.075 12.41 104.499 12.83C103.347 13.67 101.967 14.09 100.359 14.09H99.981C99.945 14.438 99.897 14.612 99.837 14.612C99.273 14.612 98.895 14.534 98.703 14.378C98.619 14.294 98.571 14.15 98.559 13.946C97.491 13.646 96.957 13.316 96.957 12.956C96.957 12.836 96.999 12.746 97.083 12.686C97.167 12.614 97.257 12.578 97.353 12.578C97.461 12.578 97.863 12.722 98.559 13.01C98.667 9.866 98.805 7.166 98.973 4.91C98.313 5.138 97.779 5.48 97.371 5.936C96.975 6.392 96.777 6.926 96.777 7.538ZM100.701 4.622C100.533 4.622 100.407 4.628 100.323 4.64C100.275 6.74 100.215 8.504 100.143 9.932C100.083 11.792 100.041 12.962 100.017 13.442C100.257 13.478 100.509 13.496 100.773 13.496C101.913 13.496 102.903 13.076 103.743 12.236C104.583 11.384 105.003 10.34 105.003 9.104C105.003 7.868 104.601 6.812 103.797 5.936C102.993 5.06 101.961 4.622 100.701 4.622ZM112.208 14.09C111.74 14.09 111.386 13.994 111.146 13.802C111.062 13.718 111.02 13.508 111.02 13.172C111.02 12.824 111.032 12.362 111.056 11.786C110.744 12.566 110.432 13.148 110.12 13.532C109.82 13.904 109.43 14.09 108.95 14.09C108.47 14.09 108.05 13.868 107.69 13.424C107.33 12.968 107.15 12.26 107.15 11.3C107.15 10.328 107.42 9.47 107.96 8.726C108.512 7.982 109.232 7.61 110.12 7.61C110.504 7.61 110.936 7.862 111.416 8.366C111.512 8.234 111.68 8.078 111.92 7.898C112.172 7.706 112.382 7.61 112.55 7.61C112.73 7.61 112.82 7.838 112.82 8.294C112.82 8.414 112.784 8.648 112.712 8.996C112.652 9.344 112.58 9.596 112.496 9.752C112.388 10.028 112.334 11.006 112.334 12.686C112.334 13.01 112.37 13.172 112.442 13.172C112.646 13.16 112.928 12.908 113.288 12.416C113.648 11.912 114.002 11.27 114.35 10.49C114.71 9.71 114.926 9.32 114.998 9.32C115.082 9.32 115.124 9.368 115.124 9.464C115.124 9.8 114.95 10.334 114.602 11.066C113.654 13.082 112.856 14.09 112.208 14.09ZM110.012 8.33C109.676 8.33 109.316 8.582 108.932 9.086C108.56 9.578 108.374 10.16 108.374 10.832C108.374 11.504 108.47 12.056 108.662 12.488C108.866 12.92 109.13 13.136 109.454 13.136C109.85 13.136 110.432 12.146 111.2 10.166C111.212 10.07 111.224 9.908 111.236 9.68C111.26 9.44 111.278 9.26 111.29 9.14C111.182 8.948 110.99 8.768 110.714 8.6C110.45 8.42 110.216 8.33 110.012 8.33ZM114.707 5.198C114.707 4.982 114.821 4.796 115.049 4.64C115.277 4.484 115.481 4.406 115.661 4.406C115.985 4.406 116.147 4.592 116.147 4.964C116.147 5.336 116.051 5.66 115.859 5.936C115.667 6.2 115.397 6.332 115.049 6.332C114.821 6.332 114.707 5.954 114.707 5.198ZM115.229 14.09C114.761 14.09 114.407 13.994 114.167 13.802C114.083 13.718 114.041 13.418 114.041 12.902C114.041 12.386 114.077 11.528 114.149 10.328C114.233 9.116 114.305 8.462 114.365 8.366C114.425 8.27 114.611 8.09 114.923 7.826C115.235 7.562 115.475 7.43 115.643 7.43C115.823 7.43 115.913 7.658 115.913 8.114C115.913 8.234 115.877 8.468 115.805 8.816C115.745 9.164 115.673 9.416 115.589 9.572C115.433 9.968 115.355 11.006 115.355 12.686C115.355 13.01 115.391 13.172 115.463 13.172C115.667 13.16 115.949 12.908 116.309 12.416C116.669 11.912 117.023 11.27 117.371 10.49C117.731 9.71 117.947 9.32 118.019 9.32C118.103 9.32 118.145 9.368 118.145 9.464C118.145 9.8 117.971 10.334 117.623 11.066C116.675 13.082 115.877 14.09 115.229 14.09ZM118.502 14.09C118.238 14.09 117.992 14.06 117.764 14C117.548 13.928 117.416 13.862 117.368 13.802C117.248 13.658 117.188 12.914 117.188 11.57C117.188 10.214 117.338 8.378 117.638 6.062C117.89 4.154 118.478 3.2 119.402 3.2C119.618 3.2 119.774 3.32 119.87 3.56C119.966 3.788 120.014 4.01 120.014 4.226C120.014 5.786 119.54 7.532 118.592 9.464C118.556 10.46 118.538 11.33 118.538 12.074C118.538 12.806 118.604 13.172 118.736 13.172C118.94 13.16 119.222 12.908 119.582 12.416C119.942 11.912 120.296 11.27 120.644 10.49C121.004 9.71 121.22 9.32 121.292 9.32C121.376 9.32 121.418 9.368 121.418 9.464C121.418 9.8 121.244 10.334 120.896 11.066C119.948 13.082 119.15 14.09 118.502 14.09ZM119.563 4.388C119.563 4.004 119.516 3.812 119.42 3.812C119.06 3.812 118.796 5.306 118.628 8.294C119.252 6.65 119.563 5.348 119.563 4.388ZM120.334 12.434L120.442 10.418C120.442 9.134 120.502 8.432 120.622 8.312C120.742 8.192 120.952 8.018 121.252 7.79C121.564 7.55 121.786 7.43 121.918 7.43C122.062 7.43 122.152 7.454 122.188 7.502C122.224 7.55 122.242 7.646 122.242 7.79C122.242 8.306 122.128 8.828 121.9 9.356C121.72 10.46 121.63 11.366 121.63 12.074C121.63 12.782 121.714 13.136 121.882 13.136C122.17 13.136 122.5 12.884 122.872 12.38C123.256 11.864 123.646 11.108 124.042 10.112C124.054 9.848 124.066 9.572 124.078 9.284C124.09 8.984 124.102 8.768 124.114 8.636C124.126 8.492 124.132 8.39 124.132 8.33C124.144 8.27 124.312 8.108 124.636 7.844C124.96 7.568 125.206 7.43 125.374 7.43C125.554 7.43 125.644 7.658 125.644 8.114C125.644 8.234 125.608 8.468 125.536 8.816C125.476 9.164 125.404 9.416 125.32 9.572C125.224 10.424 125.158 11.168 125.122 11.804C126.298 10.316 126.922 9.53 126.994 9.446C127.078 9.362 127.15 9.32 127.21 9.32C127.33 9.32 127.39 9.38 127.39 9.5C127.39 9.572 127.366 9.65 127.318 9.734C126.934 10.298 126.178 11.288 125.05 12.704C124.978 14.132 124.93 15.104 124.906 15.62C124.846 17.144 124.63 18.212 124.258 18.824C123.898 19.448 123.25 19.76 122.314 19.76C121.906 19.76 121.522 19.634 121.162 19.382C120.814 19.142 120.64 18.716 120.64 18.104C120.64 17.504 120.868 16.886 121.324 16.25C121.792 15.614 122.638 14.636 123.862 13.316L123.97 11.354C123.562 12.254 123.16 12.938 122.764 13.406C122.368 13.862 121.93 14.09 121.45 14.09C120.97 14.09 120.664 13.97 120.532 13.73C120.4 13.49 120.334 13.058 120.334 12.434ZM123.808 14.162C122.44 15.638 121.756 16.82 121.756 17.708C121.756 18.116 121.828 18.452 121.972 18.716C122.116 18.98 122.314 19.112 122.566 19.112C122.95 19.112 123.22 18.902 123.376 18.482C123.532 18.062 123.646 17.21 123.718 15.926L123.808 14.162Z" fill="#087CE8"/>
<defs>
<linearGradient id="paint0_linear" x1="6" y1="25" x2="65.5" y2="30.5" gradientUnits="userSpaceOnUse">
<stop stop-color="#4E9EE9"/>
<stop offset="1" stop-color="#087CE8"/>
</linearGradient>
</defs>
</svg>
